<svg width="131" height="104" viewBox="0 0 131 104" fill="none" xmlns="http://www.w3.org/2000/svg">
<path d="M66.0939 103.803C65.9549 103.803 65.8158 103.782 65.6767 103.728L25.751 89.0715C25.1733 88.8575 24.7775 88.2263 24.7775 87.5203V77.2072C24.7775 76.3085 25.4087 75.5811 26.1789 75.5811C26.9492 75.5811 27.5804 76.3085 27.5804 77.2072V86.3221L64.7139 99.9516V4.51287L27.5911 18.1531V27.268C27.5911 28.1666 26.9599 28.8941 26.1896 28.8941C25.4194 28.8941 24.7882 28.1666 24.7882 27.268V16.9549C24.7882 16.2488 25.184 15.6176 25.7617 15.4037L65.6874 0.747105C66.1153 0.586632 66.5754 0.682917 66.9391 0.982467C67.3028 1.29272 67.5061 1.77413 67.5061 2.29835V102.177C67.5061 102.69 67.2921 103.182 66.9391 103.493C66.6823 103.696 66.3935 103.803 66.0939 103.803Z" fill="black"/>
<path d="M10.6128 44.7808C4.84646 44.7808 0.160645 40.095 0.160645 34.3287C0.160645 28.5623 4.84646 23.8765 10.6128 23.8765C16.3791 23.8765 21.0649 28.5623 21.0649 34.3287C21.0542 40.095 16.3684 44.7808 10.6128 44.7808ZM10.6128 27.1288C6.64375 27.1288 3.4129 30.3596 3.4129 34.3287C3.4129 38.2977 6.64375 41.5286 10.6128 41.5286C14.5818 41.5286 17.8127 38.2977 17.8127 34.3287C17.802 30.3596 14.5818 27.1288 10.6128 27.1288Z" fill="black"/>
<path d="M32.6188 57.9717C29.2916 57.9717 26.585 55.265 26.585 51.9379C26.585 48.6108 29.2916 45.9041 32.6188 45.9041C35.9459 45.9041 38.6525 48.6108 38.6525 51.9379C38.6525 55.265 35.9459 57.9717 32.6188 57.9717ZM32.6188 49.1457C31.0889 49.1457 29.8372 50.3974 29.8372 51.9272C29.8372 53.457 31.0889 54.7087 32.6188 54.7087C34.1593 54.7087 35.4003 53.457 35.4003 51.9272C35.4003 50.3974 34.1486 49.1457 32.6188 49.1457Z" fill="black"/>
<path d="M12.228 77.3142C8.0129 77.3142 4.58948 73.8908 4.58948 69.6757C4.58948 65.4606 8.0129 62.0372 12.228 62.0372C16.4431 62.0372 19.8665 65.4606 19.8665 69.6757C19.8665 73.8801 16.4431 77.3142 12.228 77.3142ZM12.228 65.2787C9.8102 65.2787 7.84173 67.2472 7.84173 69.665C7.84173 72.0828 9.8102 74.0513 12.228 74.0513C14.6458 74.0513 16.6143 72.0828 16.6143 69.665C16.6143 67.2472 14.6458 65.2787 12.228 65.2787Z" fill="black"/>
<path d="M44.2692 68.7878C44.2692 70.0074 43.285 70.9917 42.0654 70.9917C40.8458 70.9917 39.8616 70.0074 39.8616 68.7878C39.8616 67.5682 40.8458 66.584 42.0654 66.584C43.2743 66.584 44.2692 67.5789 44.2692 68.7878Z" fill="black"/>
<path d="M42.8038 35.0668C42.8038 36.2864 41.8195 37.2707 40.5999 37.2707C39.3804 37.2707 38.3961 36.2864 38.3961 35.0668C38.3961 33.8472 39.3804 32.863 40.5999 32.863C41.8088 32.863 42.8038 33.8472 42.8038 35.0668Z" fill="black"/>
<path d="M115.102 40.7155C110.256 40.7155 105.41 38.608 100.596 34.3929C92.2723 27.1074 84.1845 27.1074 75.872 34.3929C75.198 34.9813 74.171 34.9171 73.5826 34.2431C72.9942 33.5691 73.0584 32.5421 73.7323 31.9537C83.3607 23.5342 93.1175 23.5342 102.746 31.9537C111.069 39.2392 119.157 39.2392 127.469 31.9537C128.143 31.3653 129.17 31.4295 129.759 32.1035C130.347 32.7774 130.283 33.8045 129.609 34.3929C124.795 38.608 119.959 40.7155 115.102 40.7155Z" fill="black"/>
<path d="M115.102 59.7797C110.256 59.7797 105.41 57.6722 100.596 53.4678C92.2723 46.1823 84.1845 46.1823 75.872 53.4678C75.198 54.0562 74.171 53.992 73.5826 53.318C72.9942 52.644 73.0584 51.617 73.7323 51.0286C83.3607 42.6091 93.1175 42.6091 102.746 51.0286C111.069 58.3141 119.157 58.3141 127.469 51.0286C128.143 50.4402 129.17 50.5044 129.759 51.1784C130.347 51.8524 130.283 52.8794 129.609 53.4678C124.795 57.6722 119.959 59.7797 115.102 59.7797Z" fill="black"/>
<path d="M115.102 78.8334C110.256 78.8334 105.41 76.7258 100.596 72.5214C92.2723 65.236 84.1845 65.236 75.872 72.5214C75.198 73.1098 74.171 73.0457 73.5826 72.3717C72.9942 71.6977 73.0584 70.6707 73.7323 70.0823C83.3607 61.6628 93.1175 61.6628 102.746 70.0823C111.069 77.3677 119.157 77.3677 127.469 70.0823C128.143 69.4939 129.17 69.558 129.759 70.232C130.347 70.906 130.283 71.933 129.609 72.5214C124.795 76.7258 119.959 78.8334 115.102 78.8334Z" fill="black"/>
</svg>
