<svg width="103" height="101" viewBox="0 0 103 101" fill="none" xmlns="http://www.w3.org/2000/svg">
<path d="M94.1739 49.7024C96.3643 51.4186 99.6499 51.1066 101.371 48.7663C103.092 46.5819 102.623 43.3054 100.432 41.5892L85.8817 30.3555V14.7533C85.8817 13.8171 85.2559 13.193 84.3171 13.193H73.5216C72.5829 13.193 71.957 13.8171 71.957 14.7533V19.746L55.3726 7.10812C53.6516 5.70392 50.8353 5.70392 49.1143 7.10812L33.4686 18.9659C33.4686 17.8737 33.3121 16.9376 32.9992 16.0014L37.2236 14.2852C38.0058 13.9731 38.4752 13.037 38.0058 12.2569C37.6929 11.4768 36.7542 11.1647 35.9719 11.4768L31.7476 13.193C31.1217 12.1009 30.3395 11.0087 29.4007 10.0726L32.2169 6.32801C32.6863 5.70392 32.6863 4.61176 31.904 4.14369C31.2782 3.67562 30.183 3.83164 29.7136 4.45574L27.0539 8.04426C25.9587 7.42017 24.707 6.9521 23.4553 6.64006L24.0812 2.11539C24.2376 1.33528 23.6118 0.555161 22.6731 0.399138C21.7343 0.243115 21.1085 0.867207 20.952 1.80334L20.3262 6.17199C19.0745 6.17199 17.6664 6.32801 16.4148 6.64006L14.6938 2.42744C14.3808 1.64732 13.4421 1.33528 12.6598 1.64732C11.8775 1.95937 11.4082 2.89551 11.7211 3.67562L13.5986 8.04426C12.5034 8.66835 11.4082 9.44847 10.4694 10.3846L6.8709 7.57619C6.08862 6.9521 5.14987 7.10812 4.6805 7.88824C4.05468 8.51233 4.21113 9.44847 4.99342 10.0726L8.74839 12.881C8.12256 13.9731 7.65319 15.2213 7.34027 16.4695L2.4901 15.8454C1.55136 15.6894 0.925535 16.3135 0.769078 17.2496C0.612621 18.0297 1.23845 18.8098 2.17719 18.9659L6.71445 19.59C6.71445 20.8381 6.8709 22.2424 7.18382 23.4905L2.95948 25.2068C2.17719 25.5188 1.86428 26.455 2.17719 27.2351C2.4901 27.8592 2.95948 28.1712 3.5853 28.1712C3.74176 28.1712 4.05468 28.1712 4.21113 28.0152L8.43547 26.2989C8.74839 26.923 9.0613 27.3911 9.53067 27.8592C10 28.3272 10.313 28.7953 10.7823 29.2634L7.9661 33.0079C7.49673 33.632 7.49673 34.7242 8.27902 35.1923C8.90484 35.6603 10 35.6603 10.4694 34.8802L13.2856 31.2917C14.0679 31.7598 15.0067 32.2278 15.9454 32.5399L4.05468 41.5892C1.86428 43.3054 1.39491 46.5819 3.11593 48.7663C4.83696 51.1066 8.12256 51.4186 10.313 49.7024L13.5986 47.206V96.9773H4.83696C3.89822 96.9773 3.27239 97.6014 3.27239 98.5376C3.27239 99.4737 3.89822 100.098 4.83696 100.098C45.2029 100.098 30.3395 100.098 99.4935 100.098C100.432 100.098 101.058 99.4737 101.058 98.5376C101.058 97.6014 100.432 96.9773 99.4935 96.9773H90.8883V47.206L94.1739 49.7024ZM75.0862 21.9303V16.1575H82.7526V27.8592C82.5961 27.8592 74.6168 21.6183 75.0862 21.9303ZM18.9181 29.8875C16.1019 29.5754 13.755 28.1712 12.034 25.9869C6.40153 18.6538 12.3469 8.20029 21.4214 9.44847C27.3668 10.2286 31.2782 15.8454 30.183 21.4622L19.231 29.8875C19.0746 29.8875 18.9181 29.8875 18.9181 29.8875ZM8.43547 47.206C7.49673 47.8301 6.24507 47.6741 5.61925 46.894C4.99342 45.9578 5.14987 44.7097 5.93216 44.0856L51.1482 9.44847C51.9305 8.9804 52.8693 8.9804 53.6516 9.44847C106.378 50.1705 45.9852 3.67562 98.5547 43.9295C99.4935 44.5536 99.6499 45.8018 98.8676 46.738C98.2418 47.5181 96.8337 47.8301 96.0514 47.05L90.419 42.6814L90.2625 42.5253L53.1822 14.2852C52.5564 13.8171 51.7741 13.8171 51.3047 14.2852L14.2244 42.6814C14.0679 42.6814 14.0679 42.8374 14.0679 42.8374L8.43547 47.206ZM87.7592 96.9773H16.7277V44.8657L52.3999 17.7177L87.9156 44.8657V96.9773H87.7592Z" fill="black"/>
<path d="M85.8816 8.04421C86.351 7.88819 88.2285 7.88819 89.1672 8.6683C89.6366 9.13637 89.9495 9.60444 90.1059 10.5406C90.2624 11.1647 90.7318 11.6327 91.3576 11.7888C91.5141 11.7888 91.5141 11.7888 91.6705 11.7888C92.2963 11.7888 92.7657 11.4767 93.0786 10.8526C93.0786 10.6966 94.9561 7.2641 98.5546 7.73217C99.3369 7.88819 100.276 7.2641 100.276 6.48398C100.432 5.70387 99.8063 4.76773 99.024 4.76773C96.0513 4.29966 93.7045 5.54784 92.1399 7.10807C91.827 6.79603 91.5141 6.32796 91.0447 6.01591C88.6978 4.29966 85.7251 4.76773 85.2558 4.76773C84.4735 4.92375 83.8477 5.70387 84.0041 6.48398C84.1606 7.57614 84.9429 8.04421 85.8816 8.04421Z" fill="black"/>
<path d="M76.4666 62.5599C76.4666 61.7339 75.8224 60.9997 74.9021 60.9997H73.1534L75.1782 58.7053C75.7304 58.0628 75.7304 57.145 75.0861 56.5944C74.4419 56.0437 73.5216 56.0437 72.9694 56.6861L69.104 60.9997H55.2069L65.0545 51.1794L70.4845 51.4548C71.3128 51.4548 71.957 50.8123 72.049 49.9863C72.049 49.6192 71.957 49.1603 71.6809 48.885C71.4048 48.6097 71.0367 48.4261 70.6685 48.4261L67.9996 48.2425L69.196 47.0494C69.4721 46.7741 69.6562 46.407 69.6562 45.9481C69.6562 45.581 69.4721 45.1221 69.196 44.8467C68.6438 44.2961 67.6314 44.2961 67.0792 44.8467L65.6067 46.3152L65.2386 43.0112C65.2386 42.6441 65.0545 42.277 64.6864 42.0016C64.4103 41.7263 63.9501 41.6345 63.582 41.6345C62.7537 41.7263 62.1094 42.4605 62.2015 43.2865L62.6616 49.2521L52.9981 58.8888V45.6728L57.4157 41.9098C58.0599 41.3592 58.152 40.4414 57.5998 39.7989C57.0476 39.1565 56.1272 39.0647 55.483 39.6154L52.9981 41.7263V39.2483C52.9981 38.4223 52.3539 37.688 51.4335 37.688C50.5132 37.688 49.869 38.3305 49.869 39.2483V41.5427L47.8442 39.6154C47.2 39.0647 46.2797 39.0647 45.7275 39.7072C45.1752 40.3496 45.1752 41.2674 45.8195 41.8181L49.961 45.581V58.8888L40.2975 49.2521L40.7576 43.2865C40.7576 42.9194 40.6656 42.4605 40.3895 42.1852C40.1134 41.9098 39.7453 41.7263 39.3771 41.6345C39.009 41.6345 38.5488 41.7263 38.2727 42.0016C37.9966 42.277 37.7205 42.6441 37.7205 43.0112L37.4444 46.407L35.9719 44.9385C35.4197 44.3879 34.4073 44.3879 33.8551 44.9385C33.579 45.2139 33.395 45.581 33.395 46.0399C33.395 46.407 33.579 46.8659 33.8551 47.1412L35.0516 48.3343L32.3826 48.5179C32.0145 48.5179 31.6463 48.7014 31.3702 48.9768C31.0941 49.2521 31.0021 49.711 31.0021 50.0781C31.0021 50.9041 31.7384 51.5466 32.5667 51.5466L37.9966 51.2712L47.8442 61.0915H34.0392L30.4499 56.7779C29.8977 56.1355 28.9773 56.0437 28.3331 56.5944C27.6889 57.145 27.5968 58.0628 28.149 58.7053L30.0817 60.9997H28.149C27.3207 60.9997 26.5845 61.6422 26.5845 62.5599C26.5845 63.3859 27.2287 64.1202 28.149 64.1202H30.2658L28.2411 66.4146C27.6889 67.0571 27.6889 67.9749 28.3331 68.5255C28.9773 69.0762 29.9897 68.9844 30.4499 68.4337L34.3153 64.1202H47.8442L37.9966 73.9404L32.5667 73.6651C32.1985 73.6651 31.7384 73.7569 31.4623 74.0322C31.1862 74.3075 31.0021 74.6747 31.0021 75.1335C31.0021 75.9596 31.6463 76.6938 32.4746 76.6938L35.1436 76.8773L33.9472 78.0704C33.6711 78.3458 33.487 78.7129 33.487 79.1718C33.487 79.5389 33.6711 79.9978 33.9472 80.2731C34.4994 80.8238 35.5117 80.8238 36.0639 80.2731L37.5365 78.8047L37.8126 82.2005C37.9046 83.0265 38.5488 83.5771 39.2851 83.5771H39.3771C40.2054 83.4854 40.8497 82.7511 40.7576 81.9251L40.2975 76.0513L49.961 66.4146V80.5485L45.7275 84.1278C45.0832 84.6785 44.9912 85.5963 45.5434 86.2387C46.0956 86.8812 47.108 86.9729 47.6602 86.4223L49.961 84.4949V86.0552C49.961 86.8812 50.6052 87.6154 51.5256 87.6154C52.4459 87.6154 53.0901 86.9729 53.0901 86.0552V84.4031L55.391 86.4223C56.0352 86.9729 56.9555 86.9729 57.5077 86.3305C57.7838 86.0552 57.8759 85.5963 57.8759 85.2292C57.8759 84.862 57.6918 84.4949 57.4157 84.2196L53.0901 80.3649V66.2311L62.7537 75.8678L62.2935 81.8334C62.2015 82.6594 62.8457 83.3936 63.674 83.4854H63.8581C64.6864 83.4854 65.3306 82.8429 65.3306 82.1087L65.6067 78.7129L67.0792 80.1814C67.6314 80.732 68.6438 80.732 69.196 80.1814C69.4721 79.906 69.6562 79.5389 69.6562 79.08C69.6562 78.7129 69.4721 78.254 69.196 77.9787L67.9996 76.7856L70.6685 76.602C71.4968 76.602 72.1411 75.8678 72.1411 75.0418C72.1411 74.6747 71.957 74.2158 71.5889 73.9404C71.3128 73.6651 70.9446 73.5733 70.4845 73.5733L65.0545 73.8487L55.2069 64.1202H69.3801L72.9694 68.342C73.5216 68.9844 74.5339 69.0762 75.0861 68.5255C75.7304 67.9749 75.8224 67.0571 75.2702 66.4146L73.3375 64.1202H74.9021C75.7304 64.1202 76.4666 63.3859 76.4666 62.5599Z" fill="black"/>
</svg>
