<svg width="131" height="73" viewBox="0 0 131 73" fill="none" xmlns="http://www.w3.org/2000/svg">
<path d="M121.878 0.178589H73.1281H58.6837H9.93366C4.95575 0.178589 0.905884 3.6202 0.905884 7.85047V37.0036C0.905884 41.2339 4.95575 44.6755 9.93366 44.6755H58.6837H73.1281H121.878C126.856 44.6755 130.906 41.2339 130.906 37.0036V7.85047C130.906 3.6202 126.856 0.178589 121.878 0.178589ZM9.93366 3.24734H58.6837H73.1281H121.878C124.864 3.24734 127.295 5.31261 127.295 7.85047V29.3318H73.1281H58.6837H4.51699V7.85047C4.51699 5.31261 6.94727 3.24734 9.93366 3.24734ZM58.6837 41.6068H20.767V38.538H58.6837H73.1281H111.045V41.6068H73.1281H58.6837ZM121.878 41.6068H114.656V35.4693H73.1281H58.6837H17.1559V41.6068H9.93366C6.94727 41.6068 4.51699 39.5415 4.51699 37.0036V32.4005H58.6837H73.1281H127.295V37.0036C127.295 39.5415 124.864 41.6068 121.878 41.6068Z" fill="black"/>
<path d="M24.3772 20.1256H9.93274V23.1944H24.3772V20.1256Z" fill="black"/>
<path d="M31.601 20.1256H27.9899V23.1944H31.601V20.1256Z" fill="black"/>
<path d="M26.1833 50.8131H22.5722C22.5722 52.0345 22.0269 52.5746 21.2018 53.394C20.2033 54.3821 18.9611 55.6142 18.9611 57.971C18.9611 60.3294 20.2033 61.5599 21.2018 62.5496C22.0269 63.369 22.5722 63.9091 22.5722 65.132C22.5722 66.3549 22.0269 66.8965 21.1999 67.7143C20.2033 68.704 18.9611 69.9361 18.9611 72.2944H22.5722C22.5722 71.0715 23.1174 70.5299 23.9444 69.7121C24.9411 68.7224 26.1833 67.4888 26.1833 65.132C26.1833 62.7751 24.9429 61.543 23.9444 60.5534C23.1174 59.7355 22.5722 59.1939 22.5722 57.971C22.5722 56.7481 23.1174 56.208 23.9426 55.3902C24.9411 54.4005 26.1833 53.1699 26.1833 50.8131Z" fill="black"/>
<path d="M47.8503 50.8131H44.2392C44.2392 52.0345 43.6939 52.5746 42.8687 53.394C41.8703 54.3821 40.6281 55.6142 40.6281 57.971C40.6281 60.3294 41.8703 61.5599 42.8687 62.5496C43.6939 63.369 44.2392 63.9091 44.2392 65.132C44.2392 66.3549 43.6939 66.8965 42.8669 67.7143C41.8703 68.704 40.6281 69.9361 40.6281 72.2944H44.2392C44.2392 71.0715 44.7844 70.5299 45.6114 69.7121C46.608 68.7224 47.8503 67.4888 47.8503 65.132C47.8503 62.7751 46.6099 61.543 45.6114 60.5534C44.7844 59.7355 44.2392 59.1939 44.2392 57.971C44.2392 56.7481 44.7844 56.208 45.6096 55.3902C46.608 54.4005 47.8503 53.1699 47.8503 50.8131Z" fill="black"/>
<path d="M69.5168 50.8131H65.9057C65.9057 52.0345 65.3604 52.5746 64.5353 53.394C63.5368 54.3821 62.2946 55.6142 62.2946 57.971C62.2946 60.3294 63.5368 61.5599 64.5353 62.5496C65.3604 63.369 65.9057 63.9091 65.9057 65.132C65.9057 66.3549 65.3604 66.8965 64.5334 67.7143C63.5368 68.704 62.2946 69.9361 62.2946 72.2944H65.9057C65.9057 71.0715 66.4509 70.5299 67.2779 69.7121C68.2746 68.7224 69.5168 67.4888 69.5168 65.132C69.5168 62.7751 68.2764 61.543 67.2779 60.5534C66.4509 59.7355 65.9057 59.1939 65.9057 57.971C65.9057 56.7481 66.4509 56.208 67.2761 55.3902C68.2746 54.4005 69.5168 53.1699 69.5168 50.8131Z" fill="black"/>
<path d="M91.1838 50.8131H87.5727C87.5727 52.0345 87.0274 52.5746 86.2022 53.394C85.2038 54.3821 83.9615 55.6142 83.9615 57.971C83.9615 60.3294 85.2038 61.5599 86.2022 62.5496C87.0274 63.369 87.5727 63.9091 87.5727 65.132C87.5727 66.3549 87.0274 66.8965 86.2004 67.7143C85.2038 68.704 83.9615 69.9361 83.9615 72.2944H87.5727C87.5727 71.0715 88.1179 70.5299 88.9449 69.7121C89.9415 68.7224 91.1838 67.4888 91.1838 65.132C91.1838 62.7751 89.9433 61.543 88.9449 60.5534C88.1179 59.7355 87.5727 59.1939 87.5727 57.971C87.5727 56.7481 88.1179 56.208 88.9431 55.3902C89.9415 54.4005 91.1838 53.1699 91.1838 50.8131Z" fill="black"/>
<path d="M112.85 50.8131H109.239C109.239 52.0345 108.694 52.5746 107.869 53.394C106.87 54.3821 105.628 55.6142 105.628 57.971C105.628 60.3294 106.87 61.5599 107.869 62.5496C108.694 63.369 109.239 63.9091 109.239 65.132C109.239 66.3549 108.694 66.8965 107.867 67.7143C106.87 68.704 105.628 69.9361 105.628 72.2944H109.239C109.239 71.0715 109.784 70.5299 110.611 69.7121C111.608 68.7224 112.85 67.4888 112.85 65.132C112.85 62.7751 111.61 61.543 110.611 60.5534C109.784 59.7355 109.239 59.1939 109.239 57.971C109.239 56.7481 109.784 56.208 110.61 55.3902C111.608 54.4005 112.85 53.1699 112.85 50.8131Z" fill="black"/>
</svg>
