<svg width="100" height="97" viewBox="0 0 100 97" fill="none" xmlns="http://www.w3.org/2000/svg">
<path d="M48.0991 46.2418C48.1281 46.9594 47.7412 47.3874 47.1817 47.7561C45.0648 49.1453 43.3816 50.9591 42.282 53.2832C40.5488 56.9454 41.1776 60.4628 43.0269 63.8683C43.7556 65.2097 44.6375 66.431 45.6484 67.5848C47.4848 69.6785 47.8347 72.2149 47.3574 74.8945C46.6029 79.1312 44.3199 82.5531 41.6758 85.7627C41.1034 86.459 40.1602 86.4557 39.5185 85.8631C38.8801 85.2722 38.8091 84.3669 39.3799 83.6575C41.0002 81.6429 42.4851 79.5394 43.496 77.1281C44.0587 75.7866 44.4505 74.3991 44.4038 72.9161C44.357 71.4479 43.8556 70.2776 42.8495 69.1255C40.502 66.4393 38.8236 63.3251 38.2706 59.6991C37.4967 54.6213 39.4557 50.5641 42.9011 47.0961C43.7604 46.2303 44.6972 45.4468 45.75 44.8312C46.8802 44.1712 48.1088 44.9201 48.1007 46.2451L48.0991 46.2418Z" fill="black"/>
<path d="M34.3888 46.5247C34.3647 46.9427 34.0309 47.3921 33.4618 47.7707C30.5726 49.6948 28.4927 52.2509 27.7478 55.77C27.1368 58.657 27.93 61.2971 29.2731 63.7989C30.0067 65.1651 30.8853 66.4242 31.9285 67.5879C33.731 69.5976 34.0615 72.0698 33.6714 74.6572C33.1038 78.4232 31.1901 81.5439 28.9748 84.5033C28.6652 84.9148 28.3428 85.3181 27.9994 85.7016C27.3577 86.4192 26.5515 86.4834 25.8663 85.8958C25.1521 85.2819 25.0553 84.3947 25.6648 83.6441C26.8982 82.1249 28.0413 80.5415 28.97 78.8083C29.9696 76.9435 30.7596 75.0012 30.6886 72.8253C30.6435 71.4295 30.1276 70.2971 29.1747 69.1812C25.2214 64.561 22.7836 58.2702 25.5713 52.1703C26.9578 49.1384 29.1118 46.788 31.8237 44.9495C32.3993 44.5594 32.999 44.4162 33.6311 44.8195C34.1502 45.1503 34.4146 45.6276 34.3856 46.5263L34.3888 46.5247Z" fill="black"/>
<path d="M73.8442 44.6467C74.5149 44.7043 75.1082 44.9413 75.3323 45.7281C75.5581 46.5198 75.3146 47.2029 74.5713 47.6999C73.1687 48.6398 71.9417 49.7771 70.9147 51.1235C67.8691 55.1149 67.9094 59.3154 70.1811 63.6294C70.9292 65.0515 71.8337 66.3617 72.9139 67.5633C74.6471 69.4923 75.0534 71.8592 74.7148 74.3775C74.1779 78.3656 72.161 81.6345 69.8038 84.7289C69.541 85.0745 69.2766 85.4218 68.9832 85.7395C68.3528 86.4193 67.4934 86.4637 66.8275 85.8744C66.1665 85.2901 66.0746 84.4096 66.6502 83.682C68.2028 81.7201 69.6539 79.6923 70.6519 77.3682C71.4032 75.6202 71.924 73.8277 71.608 71.8806C71.4516 70.9111 71.0453 70.0898 70.431 69.3228C67.4983 65.6671 65.3394 61.674 65.4668 56.7609C65.5522 53.4525 67.0291 50.7318 69.067 48.281C70.0956 47.0432 71.2984 45.998 72.614 45.0862C72.9768 44.8343 73.3621 44.6648 73.8458 44.6451L73.8442 44.6467Z" fill="black"/>
<path d="M61.1165 72.7088C61.0262 75.925 59.9025 78.6787 58.3547 81.2809C57.505 82.708 56.5296 84.0478 55.4832 85.3316C54.7641 86.2139 53.9193 86.3752 53.1825 85.776C52.4038 85.144 52.3586 84.2255 53.0712 83.3318C54.719 81.2678 56.212 79.1033 57.1858 76.613C57.8629 74.8815 58.2064 73.1039 57.7904 71.2406C57.6066 70.421 57.1874 69.7428 56.6537 69.1042C54.4497 66.4674 52.773 63.5458 52.091 60.1025C51.1736 55.4642 52.615 51.5386 55.58 48.0739C56.6086 46.8724 57.7985 45.8552 59.0496 44.9071C59.8573 44.2948 60.8666 44.387 61.4035 45.1178C61.9452 45.8552 61.7082 46.9711 60.8618 47.5406C58.8335 48.9035 57.1616 50.612 56.0169 52.8093C54.0741 56.539 54.6706 60.1568 56.5796 63.6808C57.3051 65.0206 58.1515 66.2699 59.1963 67.3974C60.5877 68.8985 61.0746 70.7929 61.1181 72.7105L61.1165 72.7088Z" fill="black"/>
<path d="M91.7779 44.8127C93.05 45.7887 94.4785 46.1492 96.0279 45.7854C98.0771 45.3031 99.3846 43.9354 99.8458 41.8862C100.329 39.7333 99.67 37.8585 97.9449 36.4841C93.3628 32.8318 88.7597 29.2041 84.1486 25.588C83.6794 25.2193 83.4811 24.8539 83.4843 24.2317C83.5133 19.3037 83.5021 14.3741 83.4988 9.44449C83.4988 8.06847 83.0151 7.5714 81.656 7.56811C78.2766 7.56152 74.8973 7.55988 71.518 7.56811C70.1104 7.5714 69.6413 8.06024 69.6364 9.49551C69.6316 11.018 69.6364 12.5422 69.6364 14.0713C69.3253 14.091 69.1898 13.8951 69.0318 13.7717C63.7709 9.67163 58.5133 5.56992 53.2589 1.46163C51.2516 -0.108604 48.7928 -0.131647 46.8001 1.41555C41.8713 5.24073 36.9409 9.06592 32.0074 12.8829C31.8139 13.0327 31.6527 13.2878 31.3641 13.2483L27.5994 16.2554C27.3866 16.5073 27.1205 16.7525 26.7997 16.9895C25.9645 17.6117 25.1358 18.2437 24.3103 18.8807L13.7225 27.3376C13.479 27.5401 13.2984 27.6964 13.1114 27.8429C9.4483 30.7019 5.78036 33.5527 2.1237 36.4183C0.530765 37.6676 -0.210885 39.3399 0.0519172 41.3743C0.319556 43.4432 1.45783 44.9131 3.39579 45.6142C5.07257 46.2216 6.67517 45.9467 8.11817 44.8686C9.20646 44.0555 10.2722 43.2111 11.346 42.3816C11.5636 42.6433 11.4991 42.8425 11.4991 43.0235C11.5023 59.4534 11.4991 75.8833 11.5136 92.3131C11.5136 92.8826 11.3685 93.0538 10.801 93.0489C8.11978 93.0192 5.43694 93.0258 2.7541 93.0423C1.78996 93.0472 1.24017 93.62 1.21921 94.5549C1.19825 95.5737 1.69806 96.1268 2.71218 96.191C3.00562 96.2091 3.30228 96.2025 3.59733 96.2025C28.4071 96.2025 53.2169 96.2025 78.0284 96.2025C84.305 96.2025 90.5816 96.2058 96.8566 96.1992C98.0368 96.1992 98.6462 95.6231 98.6285 94.5747C98.6124 93.5772 97.9997 93.039 96.855 93.0357C94.414 93.0308 91.973 93.0011 89.5336 93.0522C88.7355 93.0686 88.4679 92.9073 88.4695 92.0103C88.5001 75.745 88.4921 59.4797 88.4921 43.2144V42.2581C89.6658 43.1684 90.7202 43.993 91.7795 44.8077L91.7779 44.8127ZM73.306 10.567C75.4745 10.5884 77.6414 10.5934 79.8099 10.5654C80.3436 10.5588 80.4194 10.7876 80.4129 11.2485C80.3936 12.9964 80.4049 14.7461 80.4049 16.4941C80.4049 18.2421 80.4097 19.9917 80.3984 21.7397C80.3984 21.9405 80.5226 22.2121 80.2888 22.3323C80.0985 22.4294 79.9518 22.2154 79.8115 22.1051C77.5705 20.3324 75.3358 18.5532 73.0948 16.7821C72.8142 16.5599 72.7175 16.2999 72.7207 15.9394C72.7368 14.3544 72.7401 12.7693 72.7207 11.1843C72.7143 10.7316 72.8368 10.5621 73.3044 10.5654L73.306 10.567ZM84.7209 93.0538C73.1625 93.034 61.6024 93.039 50.044 93.039C38.5387 93.039 27.0335 93.034 15.5266 93.0522C14.8494 93.0522 14.5802 92.9567 14.5818 92.1502C14.6092 74.9829 14.6044 57.814 14.5931 40.6468C14.5931 40.1102 14.7269 39.7629 15.1655 39.4205C26.6401 30.5044 38.1018 21.5718 49.5538 12.6245C50.0359 12.2475 50.3229 12.3002 50.7743 12.6541C62.1828 21.6015 73.5994 30.5357 85.0273 39.4567C85.4416 39.7793 85.5674 40.1135 85.5674 40.6237C85.5561 57.819 85.5529 75.0142 85.5738 92.2094C85.5738 92.9073 85.3755 93.0554 84.7242 93.0538H84.7209ZM51.3499 9.00996C50.1455 8.06683 49.8392 8.06847 48.6719 8.98198C36.5524 18.4808 24.4312 27.9762 12.3166 37.4799C10.4044 38.9811 8.51318 40.5101 6.62842 42.0475C5.99318 42.5659 5.2999 42.747 4.52439 42.5758C3.65053 42.3816 3.14911 41.6294 3.16201 40.7126C3.15717 39.86 3.5151 39.3316 4.08424 38.8856C12.144 32.5734 20.199 26.2529 28.254 19.9341C35.0143 14.6325 41.7746 9.33256 48.5333 4.03096C49.6457 3.15861 50.647 3.15367 51.7465 4.02767C66.4635 15.7188 81.269 27.2915 96.0762 38.8625C97.0501 39.623 97.229 40.7159 96.5374 41.6607C95.7925 42.6795 94.5704 42.8474 93.5772 42.0557C79.5971 30.9126 65.4187 20.0329 51.3467 9.0116L51.3499 9.00996Z" fill="black"/>
</svg>
