<svg width="101" height="98" viewBox="0 0 101 98" fill="none" xmlns="http://www.w3.org/2000/svg">
<path d="M99.0381 39.8713H93.1123C92.0261 35.2113 90.1198 30.7667 87.4768 26.7319L92.1139 22.2444C92.4163 21.9517 92.5861 21.5547 92.5861 21.1409C92.5861 20.727 92.4163 20.33 92.1139 20.0373L80.8236 9.11119C80.5211 8.81858 80.1109 8.65419 79.6833 8.65419C79.2556 8.65419 78.8454 8.81858 78.5429 9.11119L73.9042 13.5987C69.7356 11.0409 65.1434 9.19607 60.3284 8.14501V2.41036C60.3284 1.99639 60.1585 1.59938 59.856 1.30666C59.5535 1.01394 59.1433 0.849487 58.7155 0.849487H42.5865C42.1587 0.849487 41.7485 1.01394 41.446 1.30666C41.1435 1.59938 40.9736 1.99639 40.9736 2.41036V8.14501C36.1586 9.19607 31.5664 11.0409 27.3978 13.5987L22.7591 9.11119C22.4566 8.81858 22.0464 8.65419 21.6187 8.65419C21.1911 8.65419 20.7809 8.81858 20.4784 9.11119L9.1881 20.0373C8.88573 20.33 8.71586 20.727 8.71586 21.1409C8.71586 21.5547 8.88573 21.9517 9.1881 22.2444L13.8252 26.7319C11.1822 30.7667 9.2759 35.2113 8.18971 39.8713H2.2639C1.83614 39.8713 1.42589 40.0358 1.12341 40.3285C0.820931 40.6212 0.651001 41.0182 0.651001 41.4322V57.041C0.651001 57.4549 0.820931 57.8519 1.12341 58.1447C1.42589 58.4374 1.83614 58.6018 2.2639 58.6018H8.18971C9.2759 63.2619 11.1822 67.7065 13.8252 71.7413L9.1881 76.2288C8.88573 76.5215 8.71586 76.9184 8.71586 77.3323C8.71586 77.7462 8.88573 78.1432 9.1881 78.4359L20.4784 89.362C20.7809 89.6546 21.1911 89.819 21.6187 89.819C22.0464 89.819 22.4566 89.6546 22.7591 89.362L27.3978 84.8745C31.5664 87.4323 36.1586 89.2771 40.9736 90.3282V96.0628C40.9736 96.4768 41.1435 96.8738 41.446 97.1665C41.7485 97.4592 42.1587 97.6237 42.5865 97.6237H58.7155C59.1433 97.6237 59.5535 97.4592 59.856 97.1665C60.1585 96.8738 60.3284 96.4768 60.3284 96.0628V90.3282C65.1436 89.2777 69.7359 87.4329 73.9042 84.8745L78.5429 89.362C78.8454 89.6546 79.2556 89.819 79.6833 89.819C80.1109 89.819 80.5211 89.6546 80.8236 89.362L92.1139 78.4359C92.4163 78.1432 92.5861 77.7462 92.5861 77.3323C92.5861 76.9184 92.4163 76.5215 92.1139 76.2288L87.4768 71.7413C90.1198 67.7065 92.0261 63.2619 93.1123 58.6018H99.0381C99.4659 58.6018 99.8761 58.4374 100.179 58.1447C100.481 57.8519 100.651 57.4549 100.651 57.041V41.4322C100.651 41.0182 100.481 40.6212 100.179 40.3285C99.8761 40.0358 99.4659 39.8713 99.0381 39.8713ZM97.4252 55.4801H91.8042C91.4298 55.4799 91.067 55.6059 90.778 55.8362C90.489 56.0666 90.2919 56.3872 90.2204 56.7428C89.1946 61.8729 87.1035 66.7482 84.0736 71.0732C83.8638 71.3735 83.7685 71.7351 83.8041 72.096C83.8397 72.4568 84.004 72.7944 84.2687 73.0508L88.6929 77.3323L79.6833 86.0514L75.2591 81.7699C74.994 81.5133 74.6448 81.354 74.2716 81.3196C73.8983 81.2851 73.5243 81.3775 73.2139 81.581C68.7451 84.5128 63.7079 86.5364 58.4074 87.5295C58.0399 87.5987 57.7087 87.7895 57.4707 88.0692C57.2326 88.3488 57.1025 88.6999 57.1026 89.0623V94.5019H44.1994V89.0623C44.1995 88.6999 44.0694 88.3488 43.8314 88.0692C43.5933 87.7895 43.2621 87.5987 42.8945 87.5295C37.5938 86.5373 32.5565 84.5135 28.0881 81.581C27.7777 81.3775 27.4037 81.2851 27.0304 81.3196C26.6572 81.354 26.308 81.5133 26.0429 81.7699L21.6187 86.0514L12.6091 77.3323L17.0333 73.0508C17.298 72.7944 17.4623 72.4568 17.4979 72.096C17.5335 71.7351 17.4382 71.3735 17.2284 71.0732C14.1985 66.7482 12.1074 61.8729 11.0816 56.7428C11.0101 56.3872 10.813 56.0666 10.524 55.8362C10.235 55.6059 9.8722 55.4799 9.49778 55.4801H3.87681V42.9931H9.49778C9.8722 42.9932 10.235 42.8673 10.524 42.6369C10.813 42.4065 11.0101 42.086 11.0816 41.7303C12.1074 36.6002 14.1985 31.725 17.2284 27.4C17.4382 27.0997 17.5335 26.7381 17.4979 26.3772C17.4623 26.0164 17.298 25.6788 17.0333 25.4223L12.6091 21.1409L21.6187 12.4218L26.0429 16.7033C26.308 16.9599 26.6572 17.1191 27.0304 17.1536C27.4037 17.1881 27.7777 17.0956 28.0881 16.8922C32.5565 13.9596 37.5938 11.9359 42.8945 10.9437C43.2621 10.8745 43.5933 10.6837 43.8314 10.404C44.0694 10.1243 44.1995 9.77323 44.1994 9.41088V3.97124H57.1026V9.41088C57.1025 9.77323 57.2326 10.1243 57.4707 10.404C57.7087 10.6837 58.0399 10.8745 58.4074 10.9437C63.7082 11.9359 68.7455 13.9596 73.2139 16.8922C73.5243 17.0956 73.8983 17.1881 74.2716 17.1536C74.6448 17.1191 74.994 16.9599 75.2591 16.7033L79.6833 12.4218L88.6929 21.1409L84.2687 25.4223C84.004 25.6788 83.8397 26.0164 83.8041 26.3772C83.7685 26.7381 83.8638 27.0997 84.0736 27.4C87.1035 31.725 89.1946 36.6002 90.2204 41.7303C90.2919 42.086 90.489 42.4065 90.778 42.6369C91.067 42.8673 91.4298 42.9932 91.8042 42.9931H97.4252V55.4801Z" fill="black"/>
<path d="M50.6511 13.3367C43.3141 13.3367 36.1418 15.4422 30.0412 19.3869C23.9407 23.3317 19.1859 28.9385 16.3782 35.4984C13.5704 42.0583 12.8358 49.2766 14.2671 56.2405C15.6985 63.2045 19.2317 69.6013 24.4197 74.622C29.6078 79.6427 36.2178 83.0618 43.4139 84.4471C50.61 85.8323 58.0689 85.1213 64.8474 82.4041C71.626 79.6869 77.4197 75.0855 81.4959 69.1818C85.5722 63.2781 87.7479 56.3371 87.7479 49.2368C87.7368 39.7188 83.8248 30.5937 76.8702 23.8634C69.9156 17.1332 60.4864 13.3474 50.6511 13.3367V13.3367ZM50.6511 82.0151C43.9521 82.0151 37.4035 80.0927 31.8334 76.491C26.2634 72.8892 21.922 67.77 19.3584 61.7805C16.7948 55.791 16.124 49.2004 17.431 42.842C18.7379 36.4837 21.9638 30.6431 26.7007 26.059C31.4377 21.4748 37.4729 18.353 44.0432 17.0882C50.6135 15.8235 57.4238 16.4726 63.613 18.9535C69.8021 21.4344 75.092 25.6357 78.8138 31.0261C82.5356 36.4165 84.5221 42.7538 84.5221 49.2368C84.5118 57.9271 80.94 66.2586 74.5902 72.4036C68.2404 78.5486 59.6311 82.0052 50.6511 82.0151Z" fill="black"/>
<path d="M62.6092 44.5544H65.1672C65.595 44.5543 66.0052 44.3898 66.3076 44.0971L74.3721 36.2927C74.6745 36 74.8443 35.603 74.8443 35.1892C74.8443 34.7753 74.6745 34.3783 74.3721 34.0856L66.3076 26.2813C66.0051 25.9886 65.5949 25.8242 65.1672 25.8242C64.7396 25.8242 64.3294 25.9886 64.0269 26.2813L55.9624 34.0856C55.6599 34.3783 55.4899 34.7752 55.4898 35.1892V37.6647L50.6511 42.3473L45.8124 37.6647V35.1892C45.8123 34.7752 45.6423 34.3783 45.3398 34.0856L37.2753 26.2813C36.9729 25.9886 36.5627 25.8242 36.135 25.8242C35.7073 25.8242 35.2971 25.9886 34.9947 26.2813L26.9302 34.0856C26.6278 34.3783 26.4579 34.7753 26.4579 35.1892C26.4579 35.603 26.6278 36 26.9302 36.2927L34.9947 44.0971C35.2971 44.3898 35.7073 44.5543 36.135 44.5544H38.6931L43.5318 49.237L40.9737 51.7126L40.5011 51.2552C40.1987 50.9626 39.7885 50.7982 39.3608 50.7982C38.9331 50.7982 38.5229 50.9626 38.2205 51.2552L28.0705 61.0763C27.0378 62.0759 26.4576 63.4315 26.4576 64.845C26.4576 66.2585 27.0378 67.6141 28.0705 68.6137L30.6285 71.0893C31.6612 72.0885 33.0617 72.6499 34.5221 72.6499C35.9824 72.6499 37.383 72.0885 38.4156 71.0893L48.5656 61.2667C48.868 60.974 49.0379 60.577 49.0379 60.1631C49.0379 59.7493 48.868 59.3523 48.5656 59.0596L48.0931 58.6023L50.6511 56.1267L53.2092 58.6023L52.7366 59.0596C52.4342 59.3523 52.2644 59.7493 52.2644 60.1631C52.2644 60.577 52.4342 60.974 52.7366 61.2667L62.8866 71.0893C63.9193 72.0885 65.3198 72.6499 66.7802 72.6499C68.2405 72.6499 69.6411 72.0885 70.6737 71.0893L73.2318 68.6153C74.2645 67.6157 74.8446 66.26 74.8446 64.8465C74.8446 63.433 74.2645 62.0774 73.2318 61.0778L63.0818 51.2552C62.7793 50.9626 62.3691 50.7982 61.9414 50.7982C61.5138 50.7982 61.1036 50.9626 60.8011 51.2552L60.3285 51.7126L57.7705 49.237L62.6092 44.5544ZM65.1672 29.5919L70.9511 35.1892L68.3931 37.6647L62.6092 32.0674L65.1672 29.5919ZM36.135 29.5919L38.6931 32.0674L32.9092 37.6647L30.3511 35.1892L36.135 29.5919ZM40.5011 41.89C40.1987 41.5972 39.7885 41.4327 39.3608 41.4327H36.8027L35.1898 39.8718L40.9737 34.2745L42.5866 35.8354V38.3109C42.5867 38.7248 42.7567 39.1218 43.0592 39.4144L48.3705 44.5544L45.8124 47.03L40.5011 41.89ZM36.135 68.8806C35.7007 69.2825 35.123 69.5068 34.5221 69.5068C33.9212 69.5068 33.3435 69.2825 32.9092 68.8806L30.3511 66.4066C29.9237 65.9925 29.6836 65.4311 29.6836 64.8458C29.6836 64.2604 29.9237 63.699 30.3511 63.2849L39.3608 54.5659L45.1447 60.1631L36.135 68.8806ZM43.2543 53.9196L58.2431 39.4144C58.5456 39.1218 58.7155 38.7248 58.7156 38.3109V35.8354L60.3285 34.2745L66.1124 39.8718L64.4995 41.4327H61.9414C61.5137 41.4327 61.1035 41.5972 60.8011 41.89L45.8124 56.3952L43.2543 53.9196ZM70.9511 63.2849C71.3786 63.699 71.6187 64.2604 71.6187 64.8458C71.6187 65.4311 71.3786 65.9925 70.9511 66.4066L68.3931 68.8806C67.9588 69.2825 67.381 69.5068 66.7802 69.5068C66.1793 69.5068 65.6015 69.2825 65.1672 68.8806L56.1576 60.1631L61.9414 54.5659L70.9511 63.2849ZM58.0479 53.9196L55.4898 56.3952L52.9318 53.9196L55.4898 51.4441L58.0479 53.9196Z" fill="black"/>
</svg>
